# xmcd
#
# Track frame offsets: 
#        150
#        12896
#        26273
#        38042
#        51762
#        66423
#        79028
#        91506
#        103325
#        116651
#        130148
#        145519
#        156863
#        168463
#        182733
#        196728
#        211366
#        225012
#        238823
#        252863
#
# Disc length: 3577 seconds
#
# Revision: 0
# Processed by: cddbd v1.5.2PL0 Copyright (c) Steve Scherf et al.
# Submitted via: ExactAudioCopy v0.99pb3
#
DISCID=fb0df714
DTITLE=Various Artist - Lock and Key Blues
DYEAR=2007
DGENRE=Blues
TTITLE0=Edward Thompson - Showers of Rain Blues
TTITLE1=Edward Thompson - Seven Sisters Blues
TTITLE2=Ed Bell - Hamlish Blues
TTITLE3=Geeshie Wiley - Last Kind Words Blues
TTITLE4=Geeshie Wiley - Skinny Leg BLues
TTITLE5=George "Bullet" Williams - Touch Me Light Mama
TTITLE6=Ramblin' Thomas - So Lonesome
TTITLE7=Ramblin' Thomas - Lock and Key Blues
TTITLE8=William Moore - Barbershop Rag
TTITLE9=William Moore - Raggin' The Blues
TTITLE10=Rube Lacy - Mississippi Jail House Groan
TTITLE11=Walter "Buddy Boy" Hawkins - Jailhouse Fire Blues
TTITLE12=Walter "Buddy Boy" Hawkins - Shaggy Dog Blues
TTITLE13=Clifford Gibson - Tired of Being Mistreated Part I
TTITLE14=Geeshie Wiley - Eagles on a Half
TTITLE15=Geeshie Wiley - Pick Poor Robin Clean
TTITLE16=Bo Weavil Jackson - Pistol Blues
TTITLE17=Bo Weavil Jackson - Why Do You Moan?
TTITLE18=Freddie Sprull - Tom Cat Blues
TTITLE19=Ishman Bracey - Woman Woman Blues
EXTD=
EXTT0=
EXTT1=
EXTT2=
EXTT3=
EXTT4=
EXTT5=
EXTT6=
EXTT7=
EXTT8=
EXTT9=
EXTT10=
EXTT11=
EXTT12=
EXTT13=
EXTT14=
EXTT15=
EXTT16=
EXTT17=
EXTT18=
EXTT19=
PLAYORDER=
